<svg width="11" height="11" viewBox="0 0 11 11" fill="none" xmlns="http://www.w3.org/2000/svg">
<path d="M7.29163 5.55666L11 7.90103V3.11328L7.29163 5.55666Z" fill="#FEAD04"/>
<path d="M0 3.11328V7.90103L3.70837 5.55666L0 3.11328Z" fill="#FEAD04"/>
<path d="M10.3125 1.71875H0.687505C0.344442 1.71875 0.0721924 1.9745 0.0206299 2.30381L5.50001 5.91388L10.9794 2.30381C10.9278 1.9745 10.6556 1.71875 10.3125 1.71875Z" fill="#FEAD04"/>
<path d="M6.66185 5.97334L5.68904 6.61409C5.63129 6.65191 5.56598 6.67047 5.49998 6.67047C5.43397 6.67047 5.36866 6.65191 5.31091 6.61409L4.3381 5.97266L0.0219727 8.70272C0.0749102 9.02928 0.345785 9.28297 0.687473 9.28297H10.3125C10.6542 9.28297 10.925 9.02928 10.978 8.70272L6.66185 5.97334Z" fill="#FEAD04"/>
</svg>
