<svg width="12" height="12" viewBox="0 0 12 12" fill="none" xmlns="http://www.w3.org/2000/svg">
<g clip-path="url(#clip0_518_1542)">
<path d="M6.3293 9.10192L11.8643 3.55156C12.0455 3.36971 12.0452 3.07529 11.8634 2.89374C11.6815 2.71234 11.3869 2.71281 11.2055 2.89468L5.99998 8.11466L0.794441 2.89449C0.613035 2.71264 0.318638 2.71217 0.136764 2.89356C0.0455923 2.98456 6.6606e-06 3.10379 6.65539e-06 3.22302C6.65019e-06 3.34194 0.0452871 3.46069 0.135826 3.55154L5.67069 9.10192C5.75783 9.1895 5.87642 9.23865 5.99998 9.23865C6.12354 9.23865 6.242 9.18936 6.3293 9.10192Z" fill="black"/>
</g>
<defs>
<clipPath id="clip0_518_1542">
<rect width="12" height="12" fill="white" transform="translate(12) rotate(90)"/>
</clipPath>
</defs>
</svg>
