<svg width="205" height="205" viewBox="0 0 205 205" fill="none" xmlns="http://www.w3.org/2000/svg">
<circle cx="102.5" cy="102.5" r="102.5" fill="#5D3128"/>
<mask id="mask0_7882_2086" style="mask-type:alpha" maskUnits="userSpaceOnUse" x="0" y="0" width="205" height="205">
<circle cx="102.5" cy="102.5" r="102.5" fill="#C4C4C4"/>
</mask>
<g mask="url(#mask0_7882_2086)">
<path d="M101.628 88.9786V-1.30859H38.8191C26.1702 -1.30859 -19.1915 40.1276 -25.2979 59.3191C-31.4043 78.5106 -99.0106 133.032 -112.096 155.713C-125.181 178.394 121.255 244.691 141.755 246C158.155 247.047 186.39 177.23 198.457 142.191L101.628 88.9786Z" fill="#FEAD04"/>
</g>
<circle cx="102.5" cy="102.5" r="79.5" fill="white"/>
<path d="M80.4131 120.84C72.9731 120.84 67.0131 118.36 62.5331 113.4L69.8531 106.08C72.9731 109.28 76.3131 110.88 79.8731 110.88C81.5131 110.88 82.8131 110.5 83.7731 109.74C84.7731 108.94 85.2731 107.86 85.2731 106.5C85.2731 105.14 84.6731 104.08 83.4731 103.32C82.2731 102.56 80.5931 102.18 78.4331 102.18H73.5131L71.8331 96.12L81.4931 87.42H65.4131V78H95.7731V86.34L85.7531 94.92C92.9931 96.52 96.6131 100.5 96.6131 106.86C96.6131 111.06 95.0931 114.44 92.0531 117C89.0531 119.56 85.1731 120.84 80.4131 120.84ZM134.659 114.54C131.099 118.74 126.399 120.84 120.559 120.84C114.719 120.84 110.019 118.76 106.459 114.6C102.939 110.4 101.179 105.2 101.179 99C101.179 92.88 102.979 87.72 106.579 83.52C110.179 79.28 114.879 77.16 120.679 77.16C126.519 77.16 131.199 79.26 134.719 83.46C138.279 87.66 140.059 92.84 140.059 99C140.059 105.12 138.259 110.3 134.659 114.54ZM115.039 107.34C116.479 109.46 118.359 110.52 120.679 110.52C122.999 110.52 124.859 109.46 126.259 107.34C127.659 105.18 128.359 102.4 128.359 99C128.359 95.64 127.619 92.88 126.139 90.72C124.699 88.56 122.839 87.48 120.559 87.48C118.239 87.48 116.379 88.54 114.979 90.66C113.579 92.78 112.879 95.56 112.879 99C112.879 102.4 113.599 105.18 115.039 107.34Z" fill="#FEAD04"/>
</svg>
