<svg width="205" height="205" viewBox="0 0 205 205" fill="none" xmlns="http://www.w3.org/2000/svg">
<circle cx="102.5" cy="102.5" r="102.5" fill="#5D3128"/>
<mask id="mask0_7882_2087" style="mask-type:alpha" maskUnits="userSpaceOnUse" x="0" y="0" width="205" height="205">
<circle cx="102.5" cy="102.5" r="102.5" fill="#C4C4C4"/>
</mask>
<g mask="url(#mask0_7882_2087)">
<path d="M98.8724 84.2872V-6H161.681C174.33 -6 219.692 35.4362 225.798 54.6277C231.904 73.8191 299.511 128.34 312.596 151.021C325.681 173.702 79.2447 240 58.7447 241.309C42.3447 242.355 23.0674 331.539 11 296.5L98.8724 84.2872Z" fill="#FEAD04"/>
</g>
<circle cx="102.5" cy="102.5" r="79.5" fill="white"/>
<path d="M42.4312 123H75.6712V113.52H58.3312L65.5312 108.48C71.8312 104.04 75.2512 100.5 75.2512 93.78C75.2512 85.74 68.9512 80.28 59.7712 80.28C51.6112 80.28 47.1712 83.46 42.6712 89.28L50.5312 95.82C53.8312 92.04 56.0512 90.42 58.8712 90.42C61.6912 90.42 63.5512 92.04 63.5512 94.68C63.5512 97.2 62.1112 99.24 58.1512 102.24L42.4312 114.24V123ZM99.7326 123.84C111.733 123.84 119.233 113.88 119.233 102C119.233 90 111.793 80.16 99.8526 80.16C87.9126 80.16 80.3526 90.12 80.3526 102C80.3526 114 87.7326 123.84 99.7326 123.84ZM99.8526 113.52C95.1726 113.52 92.0526 108.72 92.0526 102C92.0526 95.16 95.1126 90.48 99.7326 90.48C104.353 90.48 107.533 95.34 107.533 102C107.533 108.78 104.533 113.52 99.8526 113.52ZM143.561 123.84C155.561 123.84 163.061 113.88 163.061 102C163.061 90 155.621 80.16 143.681 80.16C131.741 80.16 124.181 90.12 124.181 102C124.181 114 131.561 123.84 143.561 123.84ZM143.681 113.52C139.001 113.52 135.881 108.72 135.881 102C135.881 95.16 138.941 90.48 143.561 90.48C148.181 90.48 151.361 95.34 151.361 102C151.361 108.78 148.361 113.52 143.681 113.52Z" fill="#FEAD04"/>
</svg>
